HIERARCHY
ROOT mPelvis
{
	OFFSET 0.000000 1.067000 -0.000000
	CHANNELS 6 Xposition Yposition Zposition Xrotation Yrotation Zrotation
	JOINT mTorso
	{
		OFFSET 0.000000 0.084000 -0.000000
		CHANNELS 3 Xrotation Yrotation Zrotation
		JOINT mChest
		{
			OFFSET 0.000000 0.205000 -0.015000
			CHANNELS 3 Xrotation Yrotation Zrotation
			JOINT mNeck
			{
				OFFSET 0.000000 0.251000 -0.010000
				CHANNELS 3 Xrotation Yrotation Zrotation
				JOINT mHead
				{
					OFFSET 0.000000 0.076000 0.000000
					CHANNELS 3 Xrotation Yrotation Zrotation
					JOINT mSkull
					{
						OFFSET 0.000000 0.079000 0.000000
						CHANNELS 3 Xrotation Yrotation Zrotation
						End Site
						{
							OFFSET -0.000000 -0.100000 0.000000
						}
					}
					JOINT mEyeRight
					{
						OFFSET -0.036000 0.079000 0.098000
						CHANNELS 3 Xrotation Yrotation Zrotation
						End Site
						{
							OFFSET -0.000000 -0.100000 0.000000
						}
					}
					JOINT mEyeLeft
					{
						OFFSET 0.036000 0.079000 0.098000
						CHANNELS 3 Xrotation Yrotation Zrotation
						End Site
						{
							OFFSET -0.000000 -0.100000 0.000000
						}
					}
					JOINT HEAD
					{
						OFFSET 0.000000 0.070000 0.020000
						CHANNELS 3 Xrotation Yrotation Zrotation
						End Site
						{
							OFFSET -0.000000 -0.100000 0.000000
						}
					}
				}
				JOINT NECK
				{
					OFFSET 0.000000 0.020000 0.000000
					CHANNELS 3 Xrotation Yrotation Zrotation
					End Site
					{
						OFFSET -0.000000 -0.100000 0.000000
					}
				}
			}
			JOINT mCollarLeft
			{
				OFFSET 0.085000 0.165000 -0.021000
				CHANNELS 3 Xrotation Yrotation Zrotation
				JOINT mShoulderLeft
				{
					OFFSET 0.079000 0.000000 -0.000000
					CHANNELS 3 Xrotation Yrotation Zrotation
					JOINT mElbowLeft
					{
						OFFSET 0.248000 0.000000 -0.000000
						CHANNELS 3 Xrotation Yrotation Zrotation
						JOINT mWristLeft
						{
							OFFSET 0.205000 0.000000 -0.000000
							CHANNELS 3 Xrotation Yrotation Zrotation
							JOINT L_HAND
							{
								OFFSET 0.050000 0.000000 0.010000
								CHANNELS 3 Xrotation Yrotation Zrotation
								End Site
								{
									OFFSET 0.000000 -0.100000 0.000000
								}
							}
						}
						JOINT L_LOWER_ARM
						{
							OFFSET 0.100000 0.000000 -0.000000
							CHANNELS 3 Xrotation Yrotation Zrotation
							End Site
							{
								OFFSET 0.000000 -0.100000 0.000000
							}
						}
					}
					JOINT L_UPPER_ARM
					{
						OFFSET 0.120000 0.010000 -0.000000
						CHANNELS 3 Xrotation Yrotation Zrotation
						End Site
						{
							OFFSET 0.000000 -0.100000 0.000000
						}
					}
				}
				JOINT L_CLAVICLE
				{
					OFFSET 0.000000 0.020000 0.020000
					CHANNELS 3 Xrotation Yrotation Zrotation
					End Site
					{
						OFFSET -0.000000 -0.100000 0.000000
					}
				}
			}
			JOINT mCollarRight
			{
				OFFSET -0.085000 0.165000 -0.021000
				CHANNELS 3 Xrotation Yrotation Zrotation
				JOINT mShoulderRight
				{
					OFFSET -0.079000 0.000000 0.000000
					CHANNELS 3 Xrotation Yrotation Zrotation
					JOINT mElbowRight
					{
						OFFSET -0.248000 0.000000 0.000000
						CHANNELS 3 Xrotation Yrotation Zrotation
						JOINT mWristRight
						{
							OFFSET -0.205000 0.000000 0.000000
							CHANNELS 3 Xrotation Yrotation Zrotation
							JOINT R_HAND
							{
								OFFSET -0.050000 0.000000 0.010000
								CHANNELS 3 Xrotation Yrotation Zrotation
								End Site
								{
									OFFSET 0.000000 -0.100000 0.000000
								}
							}
						}
						JOINT R_LOWER_ARM
						{
							OFFSET -0.100000 0.000000 0.000000
							CHANNELS 3 Xrotation Yrotation Zrotation
							End Site
							{
								OFFSET 0.000000 -0.100000 0.000000
							}
						}
					}
					JOINT R_UPPER_ARM
					{
						OFFSET -0.120000 0.010000 0.000000
						CHANNELS 3 Xrotation Yrotation Zrotation
						End Site
						{
							OFFSET 0.000000 -0.100000 0.000000
						}
					}
				}
				JOINT R_CLAVICLE
				{
					OFFSET 0.000000 0.020000 0.020000
					CHANNELS 3 Xrotation Yrotation Zrotation
					End Site
					{
						OFFSET -0.000000 -0.100000 0.000000
					}
				}
			}
			JOINT CHEST
			{
				OFFSET 0.000000 0.070000 0.028000
				CHANNELS 3 Xrotation Yrotation Zrotation
				End Site
				{
					OFFSET -0.000000 -0.100000 0.000000
				}
			}
			JOINT LEFT_PEC
			{
				OFFSET 0.082000 0.042000 0.119000
				CHANNELS 3 Xrotation Yrotation Zrotation
				End Site
				{
					OFFSET 0.000000 -0.100000 0.000000
				}
			}
			JOINT RIGHT_PEC
			{
				OFFSET -0.082000 0.042000 0.119000
				CHANNELS 3 Xrotation Yrotation Zrotation
				End Site
				{
					OFFSET 0.000000 -0.100000 0.000000
				}
			}
			JOINT UPPER_BACK
			{
				OFFSET 0.000000 0.017253 0.000000
				CHANNELS 3 Xrotation Yrotation Zrotation
				End Site
				{
					OFFSET -0.000000 -0.100000 0.000000
				}
			}
		}
		JOINT BELLY
		{
			OFFSET 0.000000 0.040000 0.028000
			CHANNELS 3 Xrotation Yrotation Zrotation
			End Site
			{
				OFFSET -0.000000 -0.100000 0.000000
			}
		}
		JOINT LOWER_BACK
		{
			OFFSET 0.000000 0.022848 -0.000000
			CHANNELS 3 Xrotation Yrotation Zrotation
			End Site
			{
				OFFSET -0.000000 -0.100000 0.000000
			}
		}
	}
	JOINT mHipRight
	{
		OFFSET -0.129000 -0.041000 0.034000
		CHANNELS 3 Xrotation Yrotation Zrotation
		JOINT mKneeRight
		{
			OFFSET 0.049000 -0.491000 -0.001000
			CHANNELS 3 Xrotation Yrotation Zrotation
			JOINT mAnkleRight
			{
				OFFSET -0.000000 -0.468000 -0.029000
				CHANNELS 3 Xrotation Yrotation Zrotation
				JOINT mFootRight
				{
					OFFSET 0.000000 -0.061000 0.112000
					CHANNELS 3 Xrotation Yrotation Zrotation
					JOINT mToeRight
					{
						OFFSET 0.000000 0.000000 0.109000
						CHANNELS 3 Xrotation Yrotation Zrotation
						End Site
						{
							OFFSET -0.000000 -0.100000 0.000000
						}
					}
				}
				JOINT R_FOOT
				{
					OFFSET 0.000000 -0.041000 0.077000
					CHANNELS 3 Xrotation Yrotation Zrotation
					End Site
					{
						OFFSET 0.000000 -0.100000 0.000000
					}
				}
			}
			JOINT R_LOWER_LEG
			{
				OFFSET -0.000000 -0.200000 -0.020000
				CHANNELS 3 Xrotation Yrotation Zrotation
				End Site
				{
					OFFSET -0.000000 -0.100000 0.000000
				}
			}
		}
		JOINT R_UPPER_LEG
		{
			OFFSET 0.050000 -0.220000 -0.020000
			CHANNELS 3 Xrotation Yrotation Zrotation
			End Site
			{
				OFFSET -0.000000 -0.100000 0.000000
			}
		}
	}
	JOINT mHipLeft
	{
		OFFSET 0.127000 -0.041000 0.034000
		CHANNELS 3 Xrotation Yrotation Zrotation
		JOINT mKneeLeft
		{
			OFFSET -0.046000 -0.491000 -0.001000
			CHANNELS 3 Xrotation Yrotation Zrotation
			JOINT mAnkleLeft
			{
				OFFSET 0.001000 -0.468000 -0.029000
				CHANNELS 3 Xrotation Yrotation Zrotation
				JOINT mFootLeft
				{
					OFFSET 0.000000 -0.061000 0.112000
					CHANNELS 3 Xrotation Yrotation Zrotation
					JOINT mToeLeft
					{
						OFFSET 0.000000 0.000000 0.109000
						CHANNELS 3 Xrotation Yrotation Zrotation
						End Site
						{
							OFFSET -0.000000 -0.100000 0.000000
						}
					}
				}
				JOINT L_FOOT
				{
					OFFSET 0.000000 -0.041000 0.077000
					CHANNELS 3 Xrotation Yrotation Zrotation
					End Site
					{
						OFFSET 0.000000 -0.100000 0.000000
					}
				}
			}
			JOINT L_LOWER_LEG
			{
				OFFSET -0.000000 -0.200000 -0.020000
				CHANNELS 3 Xrotation Yrotation Zrotation
				End Site
				{
					OFFSET -0.000000 -0.100000 0.000000
				}
			}
		}
		JOINT L_UPPER_LEG
		{
			OFFSET -0.050000 -0.220000 -0.020000
			CHANNELS 3 Xrotation Yrotation Zrotation
			End Site
			{
				OFFSET -0.000000 -0.100000 0.000000
			}
		}
	}
	JOINT PELVIS
	{
		OFFSET -0.000000 -0.020000 -0.010000
		CHANNELS 3 Xrotation Yrotation Zrotation
		End Site
		{
			OFFSET -0.000000 -0.100000 0.000000
		}
	}
	JOINT BUTT
	{
		OFFSET -0.000000 -0.100000 -0.060000
		CHANNELS 3 Xrotation Yrotation Zrotation
		End Site
		{
			OFFSET -0.000000 -0.100000 0.000000
		}
	}
}
MOTION
Frames: 6
Frame Time: 0.022222
0.000000 0.964357 0.000000 0.397380 -0.000000 -0.000000 -0.064521 0.000341 0.004709 -0.012324 0.000019 0.000491 16.951177 0.044760 -0.014211 12.283348 -0.000002 -0.000002 0.000004 0.000022 -179.999991 0.000002 0.000000 -0.000000 0.000002 0.000000 -0.000000 0.000002 0.000000 -0.000000 0.000001 0.000000 -0.000000 -0.004329 17.551445 0.014438 -0.704765 -0.246719 -83.816257 -0.000000 -0.015021 0.000001 0.809897 -0.028655 -4.052721 -0.000002 -0.000003 -0.000000 0.000001 0.000000 0.000001 -0.000001 0.000000 0.000001 -0.000000 -0.000002 -0.000000 -0.004678 -19.935555 -0.014638 -1.650775 15.341687 81.821172 -0.000000 0.015021 -0.000001 0.975646 0.041607 4.883911 -0.000000 0.000003 0.000000 0.000000 0.000000 0.000001 -0.000001 0.000000 -0.000001 -0.000000 -0.000001 0.000000 0.000000 -0.000000 -0.000000 -0.000000 -0.000000 -0.000000 -0.000000 -0.000000 -0.000000 -0.000000 -0.000000 -0.000000 0.000000 -0.000000 -0.000000 0.000000 -0.000000 -0.000000 -0.392949 -0.126632 -0.088861 0.363974 0.001327 -0.022378 0.266635 0.017530 -0.017164 -0.000006 0.000017 -0.000032 0.000000 0.000000 0.000000 -0.000009 0.000017 -0.000032 -0.000000 0.000001 0.000000 -0.000000 0.000002 0.000137 -0.389433 0.114292 0.116927 0.370520 0.002137 -0.022974 0.266439 0.022234 -0.016469 0.000006 -0.000012 0.000024 0.000000 -0.000000 -0.000000 0.000006 -0.000013 0.000023 0.000000 0.000001 0.000000 0.000000 0.000002 -0.000100 -0.000000 0.000000 -0.000000 -0.000000 0.000000 -0.000000 
0.000000 0.667232 0.000000 1.555418 -0.000000 -0.000000 -0.251315 0.001301 0.018343 -0.048001 0.000075 0.001911 17.496532 0.174092 -0.056175 13.211177 -0.000002 -0.000002 0.000002 0.000022 -179.999991 -0.000001 0.000000 -0.000000 -0.000001 0.000000 -0.000000 -0.000001 0.000000 -0.000000 0.000001 -0.000000 -0.000000 -0.016587 17.026731 0.056150 -1.133253 -0.801736 -83.003512 -0.000001 -0.058503 -0.000000 0.606135 -0.016042 -3.032033 -0.000002 -0.000005 0.000000 0.000002 -0.000000 -0.000000 0.000001 0.000000 -0.000000 0.000000 -0.000001 0.000000 -0.017929 -19.385047 -0.056915 -1.965763 15.774711 81.063923 -0.000000 0.058503 -0.000001 0.770620 0.025939 3.855898 0.000000 -0.000000 0.000000 -0.000000 0.000000 0.000001 -0.000001 -0.000000 -0.000001 0.000000 -0.000003 0.000000 -0.000000 0.000001 -0.000000 -0.000000 0.000001 -0.000000 -0.000000 0.000001 -0.000000 -0.000000 0.000001 -0.000000 0.000001 -0.000001 0.000000 0.000001 -0.000001 0.000000 -1.540629 -0.492590 -0.353079 1.423261 0.004366 -0.087945 1.040546 0.067957 -0.067450 -0.000011 0.000014 -0.000027 -0.000000 0.000000 0.000000 -0.000010 0.000014 -0.000027 -0.000001 0.000001 0.000000 -0.000000 0.000002 0.000136 -1.527056 0.443191 0.462507 1.449123 0.007506 -0.089635 1.039794 0.086326 -0.064857 0.000011 -0.000012 0.000023 -0.000000 0.000000 -0.000000 0.000011 -0.000012 0.000021 -0.000001 0.000001 0.000000 0.000000 0.000002 -0.000100 -0.000000 -0.000000 -0.000000 -0.000000 -0.000000 -0.000000 
0.000000 0.191833 0.000000 3.432030 -0.000000 -0.000001 -0.550266 0.002745 0.040170 -0.105085 0.000162 0.004183 17.999372 0.380624 -0.124659 14.064831 -0.000002 -0.000002 -0.000000 0.000022 -179.999991 -0.000001 -0.000000 0.000000 -0.000001 -0.000000 0.000000 -0.000001 -0.000000 0.000000 -0.000000 0.000000 -0.000000 -0.035347 16.175908 0.122604 -1.809523 -1.711841 -81.697771 0.000000 -0.128076 0.000000 0.276552 -0.003338 -1.382895 -0.000000 -0.000001 0.000000 -0.000001 -0.000000 0.000000 -0.000000 -0.000000 0.000001 0.000000 -0.000002 0.000000 -0.038201 -18.490982 -0.124203 -2.462943 16.481941 79.843436 -0.000000 0.128076 -0.000000 0.438820 0.008404 2.194617 -0.000000 0.000001 0.000000 -0.000000 0.000000 -0.000000 -0.000000 0.000000 -0.000000 0.000000 -0.000001 -0.000000 -0.000000 0.000000 -0.000000 -0.000000 0.000000 -0.000000 -0.000000 0.000000 -0.000000 -0.000000 0.000000 -0.000000 0.000000 -0.000001 0.000000 0.000000 -0.000001 0.000000 -3.408640 -1.075519 -0.797776 3.135496 0.006713 -0.194013 2.285086 0.147599 -0.149714 -0.000007 0.000014 -0.000026 -0.000000 -0.000000 -0.000000 -0.000008 0.000014 -0.000027 -0.000001 0.000001 -0.000000 -0.000000 0.000002 0.000136 -3.379299 0.962601 1.037617 3.193399 0.013533 -0.197614 2.283464 0.187997 -0.144458 0.000005 -0.000006 0.000014 0.000001 -0.000000 0.000000 0.000005 -0.000007 0.000013 -0.000000 0.000000 0.000000 0.000000 0.000003 -0.000099 -0.000000 -0.000000 -0.000000 -0.000000 -0.000000 -0.000000 
0.000000 -0.445635 0.000000 5.993742 -0.000001 -0.000001 -0.951284 0.004503 0.069459 -0.181630 0.000276 0.007231 18.461732 0.657079 -0.218140 14.847745 -0.000002 -0.000003 -0.000001 0.000022 -179.999991 -0.000001 -0.000000 -0.000000 -0.000001 -0.000000 -0.000000 -0.000001 -0.000000 -0.000000 -0.000002 0.000000 -0.000000 -0.058850 15.025745 0.211151 -2.696857 -2.974525 -79.936894 -0.000001 -0.221368 -0.000001 -0.171748 -0.001288 0.858764 0.000001 -0.000000 0.000000 -0.000001 0.000000 -0.000000 -0.000001 0.000000 -0.000001 0.000000 0.000001 0.000000 -0.063586 -17.281227 -0.213737 -3.115324 17.457806 78.189854 -0.000000 0.221368 0.000000 -0.012828 0.000006 -0.064145 -0.000000 0.000001 0.000000 0.000000 -0.000000 0.000000 -0.000000 0.000000 0.000000 0.000000 -0.000001 0.000000 0.000000 0.000000 -0.000000 -0.000000 0.000000 -0.000000 0.000000 0.000000 -0.000000 0.000001 0.000000 -0.000000 0.000000 -0.000002 0.000000 0.000000 -0.000002 0.000000 -5.975253 -1.849763 -1.437432 5.464415 0.004818 -0.338298 3.965688 0.252267 -0.263501 -0.000007 0.000010 -0.000023 0.000000 -0.000000 0.000000 -0.000008 0.000010 -0.000025 -0.000001 0.000001 -0.000000 -0.000000 0.000003 0.000138 -5.925203 1.643266 1.852181 5.567482 0.016448 -0.344777 3.962952 0.322492 -0.255412 0.000012 -0.000008 0.000014 0.000002 -0.000000 -0.000000 0.000011 -0.000007 0.000011 -0.000001 0.000000 0.000000 0.000000 0.000002 -0.000100 -0.000000 0.000000 0.000000 -0.000000 0.000000 0.000000 
0.000000 -1.228964 0.000000 9.211349 -0.000001 -0.000002 -1.444280 0.006383 0.105483 -0.275691 0.000411 0.010976 18.885675 0.996254 -0.334840 15.563276 -0.000002 -0.000003 0.000002 0.000022 -179.999991 0.000002 0.000000 0.000000 0.000002 0.000000 0.000000 0.000002 0.000000 -0.000000 -0.000001 0.000000 0.000000 -0.085157 13.602992 0.319120 -3.753467 -4.591581 -77.757933 0.000000 -0.336010 0.000000 -0.731392 -0.023365 3.659343 0.000002 -0.000000 0.000001 -0.000001 0.000000 -0.000001 -0.000001 0.000000 -0.000000 -0.000000 -0.000001 0.000000 -0.091984 -15.783649 -0.322725 -3.892002 18.699410 76.131098 -0.000000 0.336010 -0.000000 -0.577167 0.014543 -2.887004 0.000000 -0.000001 -0.000001 0.000000 -0.000000 0.000002 -0.000000 0.000000 -0.000000 0.000001 -0.000001 0.000000 0.000000 0.000000 -0.000000 0.000000 0.000000 -0.000000 -0.000000 0.000000 0.000000 -0.000000 0.000000 0.000000 0.000000 -0.000000 -0.000000 -0.000000 -0.000000 -0.000000 -9.226754 -2.784139 -2.293188 8.376491 -0.005798 -0.518411 6.048548 0.377267 -0.408687 -0.000015 0.000009 -0.000021 -0.000003 0.000000 0.000000 -0.000019 0.000010 -0.000022 0.000000 0.000001 0.000000 -0.000000 0.000002 0.000137 -9.151446 2.449006 2.921945 8.538489 0.011507 -0.528902 6.044535 0.484549 -0.398297 0.000011 -0.000007 0.000011 -0.000001 0.000000 -0.000000 0.000006 -0.000007 0.000012 -0.000000 -0.000000 -0.000000 0.000000 0.000002 -0.000100 -0.000000 -0.000000 -0.000000 -0.000000 -0.000000 -0.000000 
0.000000 -2.141947 0.000000 13.055509 -0.000002 -0.000002 -2.019159 0.008183 0.147508 -0.385320 0.000559 0.015341 19.273324 1.391016 -0.472771 16.214710 -0.000002 -0.000003 -0.000001 0.000022 -179.999991 -0.000001 0.000000 0.000000 -0.000001 0.000000 0.000000 -0.000001 0.000000 0.000000 0.000003 -0.000000 0.000000 -0.112275 11.934771 0.443898 -4.932440 -6.565127 -75.197787 -0.000000 -0.469631 -0.000001 -1.393558 -0.085048 6.984397 0.000001 -0.000000 0.000000 0.000000 -0.000000 0.000002 0.000000 -0.000000 -0.000001 -0.000000 -0.000000 -0.000000 -0.121248 -14.026506 -0.448440 -4.757965 20.203893 73.694107 -0.000000 0.469631 0.000002 -1.245586 0.067894 -6.239763 0.000000 -0.000000 -0.000001 -0.000001 0.000000 -0.000000 0.000000 0.000000 0.000001 0.000001 -0.000000 0.000000 0.000001 0.000000 -0.000000 0.000001 0.000000 -0.000000 0.000002 0.000000 -0.000000 0.000001 0.000000 -0.000000 -0.000001 -0.000001 -0.000000 -0.000001 -0.000001 -0.000000 -13.152460 -3.839464 -3.389755 11.837625 -0.030294 -0.731447 8.499387 0.517446 -0.585169 -0.000015 0.000014 -0.000030 0.000002 -0.000000 0.000001 -0.000015 0.000013 -0.000028 0.000000 -0.000001 0.000000 -0.000000 0.000004 0.000137 -13.046947 3.334776 4.264753 12.073013 -0.006791 -0.747257 8.494051 0.668405 -0.573798 0.000002 -0.000002 0.000007 -0.000003 0.000000 0.000000 0.000008 -0.000003 0.000006 0.000001 -0.000001 0.000001 0.000000 0.000003 -0.000099 -0.000000 -0.000000 -0.000000 -0.000000 -0.000000 -0.000000 
